<?xml version="1.0" encoding="UTF-8"?>
<svg width="80px" height="80px" viewBox="0 0 80 80" version="1.1" xmlns="http://www.w3.org/2000/svg" xmlns:xlink="http://www.w3.org/1999/xlink">
    <!-- Generator: Sketch 50 (54983) - http://www.bohemiancoding.com/sketch -->
    <title>noun_1255051_cc</title>
    <desc>Created with Sketch.</desc>
    <defs></defs>
    <g id="site" stroke="none" stroke-width="1" fill="none" fill-rule="evenodd">
        <g id="OpenMedia" transform="translate(-130.000000, -560.000000)" fill="#0976C9" fill-rule="nonzero">
            <g id="noun_1255051_cc" transform="translate(130.000000, 560.000000)">
                <g id="Group">
                    <path d="M40,0 C17.90861,-1.3527075e-15 2.705415e-15,17.90861 0,40 C-2.705415e-15,62.09139 17.90861,80 40,80 C62.09139,80 80,62.09139 80,40 C80,29.3913404 75.7857264,19.2171839 68.2842712,11.7157288 C60.7828161,4.21427361 50.6086596,6.49593051e-16 40,0 Z M77.4125,37.5 L61.25,37.5 C60.9709739,31.4519325 59.5412769,25.5125382 57.0375,20 L71.7,20 C75.0387673,25.2633107 77.0029525,31.2805082 77.4125,37.5 Z M70,17.5 L55.7625,17.5 C52.7863394,11.8742264 48.7792749,6.85797519 43.95,2.7125 C54.3104816,3.80901932 63.7478195,9.16620301 70,17.5 Z M41.25,3.75 C45.9863094,7.54682043 49.9533091,12.2138788 52.9375,17.5 L41.25,17.5 L41.25,3.75 Z M36.05,2.75 C31.2244208,6.88438791 27.2175752,11.8876449 24.2375,17.5 L10,17.5 C16.2521805,9.16620301 25.6895184,3.80901932 36.05,2.7125 L36.05,2.75 Z M38.75,3.75 L38.75,17.5 L27.075,17.5 C30.0597753,12.2179617 34.0218263,7.55173456 38.75,3.75 Z M8.3,20 L23.025,20 C20.3444638,25.895841 18.8900329,32.2749242 18.75,38.75 L2.5,38.75 C2.7224418,32.0938936 4.72529869,25.6191408 8.3,20 Z M2.5,41.25 L18.75,41.25 C18.8782345,47.7224657 20.3198816,54.1014351 22.9875,60 L8.3,60 C4.72529869,54.3808592 2.7224418,47.9061064 2.5,41.25 Z M10,62.5 L24.2375,62.5 C27.2136606,68.1257736 31.2207251,73.1420248 36.05,77.2875 C25.6895184,76.1909807 16.2521805,70.833797 10,62.5 Z M38.75,76.25 C34.0136906,72.4531796 30.0466909,67.7861212 27.0625,62.5 L38.75,62.5 L38.75,76.25 Z M25.7625,60 C22.7571639,53.7631735 21.213863,46.9230589 21.25,40 C21.2159996,33.0757747 22.763675,26.2352204 25.775,20 L54.2375,20 C57.2428361,26.2368265 58.786137,33.0769411 58.75,40 C58.7840004,46.9242253 57.236325,53.7647796 54.225,60 L25.7625,60 Z M41.25,62.5 L52.925,62.5 C49.9402247,67.7820383 45.9781737,72.4482654 41.25,76.25 L41.25,62.5 Z M43.95,77.2875 C48.7792749,73.1420248 52.7863394,68.1257736 55.7625,62.5 L70,62.5 C63.7478195,70.833797 54.3104816,76.1909807 43.95,77.2875 Z M56.975,60 C59.8232074,53.7188369 61.2814417,46.8966881 61.25,40 L77.5000163,40 C77.5066295,47.0823914 75.4947228,54.0200008 71.7,60 L56.975,60 Z" id="Shape"></path>
                    <path d="M51.25,25 L28.75,25 C28.0596441,25 27.5,25.5596441 27.5,26.25 L27.5,46.25 C27.5,46.9403559 28.0596441,47.5 28.75,47.5 L38.75,47.5 L38.75,52.5 L31.25,52.5 L31.25,55 L48.75,55 L48.75,52.5 L41.25,52.5 L41.25,47.5 L51.25,47.5 C51.9403559,47.5 52.5,46.9403559 52.5,46.25 L52.5,26.25 C52.5,25.5596441 51.9403559,25 51.25,25 Z M50,45 L30,45 L30,37.5 L50,37.5 L50,45 Z M50,35 L30,35 L30,27.5 L50,27.5 L50,35 Z" id="Shape"></path>
                    <rect id="Rectangle-path" x="32.5" y="30" width="2.5" height="2.5"></rect>
                    <rect id="Rectangle-path" x="37.5" y="30" width="2.5" height="2.5"></rect>
                    <rect id="Rectangle-path" x="42.5" y="30" width="5" height="2.5"></rect>
                    <rect id="Rectangle-path" x="32.5" y="40" width="15" height="2.5"></rect>
                </g>
            </g>
        </g>
    </g>
</svg>