<?xml version="1.0" encoding="UTF-8"?>
<svg width="80px" height="80px" viewBox="0 0 80 80" version="1.1" xmlns="http://www.w3.org/2000/svg" xmlns:xlink="http://www.w3.org/1999/xlink">
    <!-- Generator: Sketch 50 (54983) - http://www.bohemiancoding.com/sketch -->
    <title>noun_1255055_cc</title>
    <desc>Created with Sketch.</desc>
    <defs></defs>
    <g id="site" stroke="none" stroke-width="1" fill="none" fill-rule="evenodd">
        <g id="OpenMedia" transform="translate(-450.000000, -560.000000)" fill="#0976C9" fill-rule="nonzero">
            <g id="noun_1255055_cc" transform="translate(450.000000, 559.000000)">
                <g id="Group">
                    <path d="M45,27.4153846 L47.5,27.4153846 L47.5,18.6923077 C47.5,18.5926154 47.5,16.2 51.25,16.2 L61.9875,16.2 L59.125,19.0536923 L60.8875,20.8107692 L65.8875,15.8261538 C66.3721545,15.3401072 66.3721545,14.5551236 65.8875,14.0690769 L60.8875,9.08446154 L59.1125,10.854 L61.9875,13.7076923 L51.25,13.7076923 C46.25,13.7076923 45,16.9726154 45,18.6923077 L45,27.4153846 Z" id="Shape"></path>
                    <path d="M38.75,5.49553846 L38.75,27.4153846 L41.25,27.4153846 L41.25,5.49553846 L44.1125,8.34923077 L45.875,6.59215385 L40.875,1.60753846 C40.3874532,1.12437521 39.6000468,1.12437521 39.1125,1.60753846 L34.1125,6.59215385 L35.875,8.34923077 L38.75,5.49553846 Z" id="Shape"></path>
                    <path d="M20.8875,10.854 L19.1125,9.08446154 L14.1125,14.0690769 C13.6278455,14.5551236 13.6278455,15.3401072 14.1125,15.8261538 L19.1125,20.8107692 L20.875,19.0536923 L18.0125,16.2 L28.75,16.2 C32.25,16.2 32.5,18.2935385 32.5,18.6923077 L32.5,27.4153846 L35,27.4153846 L35,18.6923077 C35,16.9726154 33.75,13.7076923 28.75,13.7076923 L18.0125,13.7076923 L20.8875,10.854 Z" id="Shape"></path>
                    <path d="M45,29.9076923 L45,32.4 C45,33.7764635 46.1192881,34.8923077 47.5,34.8923077 L53.75,34.8923077 L53.75,32.4 L47.5,32.4 L47.5,29.9076923 L45,29.9076923 Z" id="Shape"></path>
                    <rect id="Rectangle-path" x="56.25" y="32.4" width="2.5" height="2.49230769"></rect>
                    <rect id="Rectangle-path" x="21.25" y="32.4" width="2.5" height="2.49230769"></rect>
                    <path d="M35,32.4 L35,29.9076923 L32.5,29.9076923 L32.5,32.4 L26.25,32.4 L26.25,34.8923077 L32.5,34.8923077 C33.8807119,34.8923077 35,33.7764635 35,32.4 Z" id="Shape"></path>
                    <polygon id="Shape" points="21.25 43.6153846 58.75 43.6153846 58.75 41.1230769 41.25 41.1230769 41.25 29.9076923 38.75 29.9076923 38.75 41.1230769 21.25 41.1230769"></polygon>
                    <path d="M76.25,3.73846154 L56.25,3.73846154 L56.25,6.23076923 L76.25,6.23076923 C76.9403559,6.23076923 77.5,6.78869131 77.5,7.47692308 L77.5,47.3538462 L73.75,47.3538462 L73.75,11.2153846 C73.75,10.5271529 73.1903559,9.96923077 72.5,9.96923077 L70,9.96923077 L70,12.4615385 L71.25,12.4615385 L71.25,47.3538462 L8.75,47.3538462 L8.75,12.4615385 L11.25,12.4615385 L11.25,9.96923077 L7.5,9.96923077 C6.80964406,9.96923077 6.25,10.5271529 6.25,11.2153846 L6.25,47.3538462 L2.5,47.3538462 L2.5,7.47692308 C2.5,6.78869131 3.05964406,6.23076923 3.75,6.23076923 L23.75,6.23076923 L23.75,3.73846154 L3.75,3.73846154 C1.67893219,3.73846154 2.53632657e-16,5.41222778 0,7.47692308 L0,62.3076923 C8.45442189e-17,62.9959241 0.559644063,63.5538462 1.25,63.5538462 L29.725,63.5538462 L27.725,73.5230769 L25,73.5230769 C24.3096441,73.5230769 23.75,74.080999 23.75,74.7692308 L23.75,78.5076923 L21.25,78.5076923 L21.25,81 L58.75,81 L58.75,78.5076923 L56.25,78.5076923 L56.25,74.7692308 C56.25,74.080999 55.6903559,73.5230769 55,73.5230769 L52.275,73.5230769 L50.275,63.5538462 L78.75,63.5538462 C79.4403559,63.5538462 80,62.9959241 80,62.3076923 L80,7.47692308 C80,5.41222778 78.3210678,3.73846154 76.25,3.73846154 Z M51.25,76.0153846 L53.75,76.0153846 L53.75,78.5076923 L26.25,78.5076923 L26.25,76.0153846 L51.25,76.0153846 Z M30.275,73.5230769 L32.275,63.5538462 L47.725,63.5538462 L49.725,73.5230769 L30.275,73.5230769 Z M77.5,61.0615385 L2.5,61.0615385 L2.5,49.8461538 L77.5,49.8461538 L77.5,61.0615385 Z" id="Shape"></path>
                    <path d="M40,58.5692308 C42.0710678,58.5692308 43.75,56.8954645 43.75,54.8307692 C43.75,52.7660739 42.0710678,51.0923077 40,51.0923077 C37.9289322,51.0923077 36.25,52.7660739 36.25,54.8307692 C36.25,56.8954645 37.9289322,58.5692308 40,58.5692308 Z M40,53.5846154 C40.6903559,53.5846154 41.25,54.1425375 41.25,54.8307692 C41.25,55.519001 40.6903559,56.0769231 40,56.0769231 C39.3096441,56.0769231 38.75,55.519001 38.75,54.8307692 C38.75,54.1425375 39.3096441,53.5846154 40,53.5846154 Z" id="Shape"></path>
                </g>
            </g>
        </g>
    </g>
</svg>