<?xml version="1.0" encoding="UTF-8"?>
<svg width="80px" height="80px" viewBox="0 0 80 80" version="1.1" xmlns="http://www.w3.org/2000/svg" xmlns:xlink="http://www.w3.org/1999/xlink">
    <!-- Generator: Sketch 50 (54983) - http://www.bohemiancoding.com/sketch -->
    <title>noun_1255059_cc</title>
    <desc>Created with Sketch.</desc>
    <defs></defs>
    <g id="site" stroke="none" stroke-width="1" fill="none" fill-rule="evenodd">
        <g id="OpenMedia" transform="translate(-770.000000, -560.000000)" fill="#0976C9" fill-rule="nonzero">
            <g id="noun_1255059_cc" transform="translate(770.000000, 560.000000)">
                <g id="Group">
                    <path d="M77.5,27.5 C77.8322537,27.5019209 78.1516015,27.3714831 78.3875,27.1375 L79.6375,25.8875 C79.8714831,25.6516015 80.0019209,25.3322537 80,25 L80,5 C80,2.23857625 77.7614237,1.69088438e-16 75,0 L5,0 C2.23857625,-1.69088438e-16 3.38179598e-16,2.23857625 3.38813179e-21,5 L3.38813179e-21,25 C-0.0019209485,25.3322537 0.128516857,25.6516015 0.3625,25.8875 L1.6125,27.1375 C1.84839854,27.3714831 2.16774627,27.5019209 2.5,27.5 L3.75,27.5 L3.75,32.675 C1.54824633,33.2434776 0.00738399213,35.2260538 3.38813179e-21,37.5 L3.38813179e-21,57.5 C-0.0019209485,57.8322537 0.128516857,58.1516015 0.3625,58.3875 L1.6125,59.6375 C1.84839854,59.8714831 2.16774627,60.0019209 2.5,60 L36.25,60 L36.25,67.5 L28.75,67.5 C27.3692881,67.5 26.25,68.6192881 26.25,70 L7.5,70 C6.80964406,70 6.25,70.5596441 6.25,71.25 L6.25,76.25 C6.25,76.9403559 6.80964406,77.5 7.5,77.5 L26.25,77.5 C26.25,78.8807119 27.3692881,80 28.75,80 L51.25,80 C52.6307119,80 53.75,78.8807119 53.75,77.5 L72.5,77.5 C73.1903559,77.5 73.75,76.9403559 73.75,76.25 L73.75,71.25 C73.75,70.5596441 73.1903559,70 72.5,70 L53.75,70 C53.75,68.6192881 52.6307119,67.5 51.25,67.5 L43.75,67.5 L43.75,60 L77.5,60 C77.8322537,60.0019209 78.1516015,59.8714831 78.3875,59.6375 L79.6375,58.3875 C79.8714831,58.1516015 80.0019209,57.8322537 80,57.5 L80,37.5 C79.992616,35.2260538 78.4517537,33.2434776 76.25,32.675 L76.25,27.5 L77.5,27.5 Z M26.25,75 L8.75,75 L8.75,72.5 L26.25,72.5 L26.25,75 Z M53.75,72.5 L71.25,72.5 L71.25,75 L53.75,75 L53.75,72.5 Z M51.25,70 L51.25,77.5 L28.75,77.5 L28.75,75 L43.75,75 L43.75,72.5 L28.75,72.5 L28.75,70 L51.25,70 Z M38.75,67.5 L38.75,60 L41.25,60 L41.25,67.5 L38.75,67.5 Z M77.5,37.5 L77.5,56.9875 L76.9875,57.5 L3.0125,57.5 L2.5,56.9875 L2.5,37.5 C2.5,36.1192881 3.61928813,35 5,35 L75,35 C76.3807119,35 77.5,36.1192881 77.5,37.5 Z M6.25,32.5 L6.25,27.5 L73.75,27.5 L73.75,32.5 L6.25,32.5 Z M3.0125,25 L2.5,24.4875 L2.5,5 C2.5,3.61928813 3.61928813,2.5 5,2.5 L75,2.5 C76.3807119,2.5 77.5,3.61928813 77.5,5 L77.5,24.4875 L76.9875,25 L3.0125,25 Z" id="Shape"></path>
                    <path d="M6.25,17.5 L58.75,17.5 C59.4403559,17.5 60,16.9403559 60,16.25 L60,6.25 C60,5.55964406 59.4403559,5 58.75,5 L6.25,5 C5.55964406,5 5,5.55964406 5,6.25 L5,16.25 C5,16.9403559 5.55964406,17.5 6.25,17.5 Z M7.5,7.5 L57.5,7.5 L57.5,15 L7.5,15 L7.5,7.5 Z" id="Shape"></path>
                    <path d="M68.75,5 C65.2982203,5 62.5,7.79822031 62.5,11.25 C62.5,14.7017797 65.2982203,17.5 68.75,17.5 C72.2017797,17.5 75,14.7017797 75,11.25 C75,9.59239694 74.3415197,8.00268498 73.1694174,6.83058262 C71.997315,5.65848025 70.4076031,5 68.75,5 Z M68.75,15 C67.1646814,14.9955445 65.7534354,13.9946609 65.225,12.5 L72.2625,12.5 C71.7356115,13.9903607 70.3307252,14.9902798 68.75,15 Z M65.225,10 C65.7681667,8.52581886 67.1726866,7.54649467 68.74375,7.54649467 C70.3148134,7.54649467 71.7193333,8.52581886 72.2625,10 L65.225,10 Z" id="Shape"></path>
                    <rect id="Rectangle-path" x="10" y="10" width="20" height="2.5"></rect>
                    <rect id="Rectangle-path" x="32.5" y="10" width="2.5" height="2.5"></rect>
                    <rect id="Rectangle-path" x="37.5" y="10" width="2.5" height="2.5"></rect>
                    <rect id="Rectangle-path" x="42.5" y="10" width="2.5" height="2.5"></rect>
                    <rect id="Rectangle-path" x="47.5" y="10" width="7.5" height="2.5"></rect>
                    <rect id="Rectangle-path" x="5" y="20" width="70" height="2.5"></rect>
                    <path d="M36.25,38.75 L6.25,38.75 C5.55964406,38.75 5,39.3096441 5,40 L5,52.5 C5,53.1903559 5.55964406,53.75 6.25,53.75 L36.25,53.75 C36.9403559,53.75 37.5,53.1903559 37.5,52.5 L37.5,40 C37.5,39.3096441 36.9403559,38.75 36.25,38.75 Z M35,51.25 L7.5,51.25 L7.5,41.25 L35,41.25 L35,51.25 Z" id="Shape"></path>
                    <rect id="Rectangle-path" x="10" y="43.75" width="2.5" height="5"></rect>
                    <rect id="Rectangle-path" x="15" y="43.75" width="2.5" height="5"></rect>
                    <rect id="Rectangle-path" x="20" y="43.75" width="2.5" height="5"></rect>
                    <rect id="Rectangle-path" x="25" y="43.75" width="2.5" height="5"></rect>
                    <rect id="Rectangle-path" x="30" y="43.75" width="2.5" height="5"></rect>
                    <path d="M73.75,38.75 L43.75,38.75 C43.0596441,38.75 42.5,39.3096441 42.5,40 L42.5,52.5 C42.5,53.1903559 43.0596441,53.75 43.75,53.75 L73.75,53.75 C74.4403559,53.75 75,53.1903559 75,52.5 L75,40 C75,39.3096441 74.4403559,38.75 73.75,38.75 Z M72.5,51.25 L45,51.25 L45,41.25 L72.5,41.25 L72.5,51.25 Z" id="Shape"></path>
                    <rect id="Rectangle-path" x="47.5" y="43.75" width="2.5" height="5"></rect>
                    <rect id="Rectangle-path" x="52.5" y="43.75" width="2.5" height="5"></rect>
                    <rect id="Rectangle-path" x="57.5" y="43.75" width="2.5" height="5"></rect>
                    <rect id="Rectangle-path" x="62.5" y="43.75" width="2.5" height="5"></rect>
                    <rect id="Rectangle-path" x="67.5" y="43.75" width="2.5" height="5"></rect>
                    <rect id="Rectangle-path" x="46.25" y="72.5" width="2.5" height="2.5"></rect>
                </g>
            </g>
        </g>
    </g>
</svg>