<svg width="80" height="80" viewBox="0 0 80 80" xmlns="http://www.w3.org/2000/svg"><title>noun_1255051_cc</title><g fill="#0976C9" fill-rule="nonzero"><path d="M40 0C17.909 0 0 17.909 0 40s17.909 40 40 40 40-17.909 40-40A40 40 0 0 0 40 0zm37.412 37.5H61.25A47.625 47.625 0 0 0 57.038 20H71.7a37.238 37.238 0 0 1 5.712 17.5zM70 17.5H55.763A50.788 50.788 0 0 0 43.95 2.713 37.5 37.5 0 0 1 70 17.5zM41.25 3.75A47.638 47.638 0 0 1 52.938 17.5H41.25V3.75zm-5.2-1A50.788 50.788 0 0 0 24.238 17.5H10A37.5 37.5 0 0 1 36.05 2.713v.037zm2.7 1V17.5H27.075A47.85 47.85 0 0 1 38.75 3.75zM8.3 20h14.725a47.8 47.8 0 0 0-4.275 18.75H2.5A37.25 37.25 0 0 1 8.3 20zM2.5 41.25h16.25A47.8 47.8 0 0 0 22.988 60H8.3a37.25 37.25 0 0 1-5.8-18.75zM10 62.5h14.238A50.788 50.788 0 0 0 36.05 77.287 37.5 37.5 0 0 1 10 62.5zm28.75 13.75A47.637 47.637 0 0 1 27.062 62.5H38.75v13.75zM25.762 60a45.525 45.525 0 0 1-4.512-20 45.475 45.475 0 0 1 4.525-20h28.462a45.525 45.525 0 0 1 4.513 20 45.475 45.475 0 0 1-4.525 20H25.762zm15.488 2.5h11.675A47.85 47.85 0 0 1 41.25 76.25V62.5zm2.7 14.787A50.788 50.788 0 0 0 55.763 62.5H70a37.5 37.5 0 0 1-26.05 14.787zM56.975 60a47.9 47.9 0 0 0 4.275-20H77.5a37.263 37.263 0 0 1-5.8 20H56.975z"/><path d="M51.25 25h-22.5c-.69 0-1.25.56-1.25 1.25v20c0 .69.56 1.25 1.25 1.25h10v5h-7.5V55h17.5v-2.5h-7.5v-5h10c.69 0 1.25-.56 1.25-1.25v-20c0-.69-.56-1.25-1.25-1.25zM50 45H30v-7.5h20V45zm0-10H30v-7.5h20V35z"/><path d="M32.5 30H35v2.5h-2.5zM37.5 30H40v2.5h-2.5zM42.5 30h5v2.5h-5zM32.5 40h15v2.5h-15z"/></g></svg>