<svg width="80" height="80" viewBox="0 0 80 80" xmlns="http://www.w3.org/2000/svg"><title>noun_1255055_cc</title><g fill="#0976C9" fill-rule="nonzero"><path d="M45 26.415h2.5v-8.723c0-.1 0-2.492 3.75-2.492h10.737l-2.862 2.854 1.763 1.757 5-4.985a1.243 1.243 0 0 0 0-1.757l-5-4.985-1.776 1.77 2.875 2.854H51.25c-5 0-6.25 3.265-6.25 4.984v8.723zM38.75 4.496v21.92h2.5V4.495l2.862 2.853 1.763-1.757-5-4.984a1.253 1.253 0 0 0-1.763 0l-5 4.984 1.763 1.757 2.875-2.853zM20.887 9.854l-1.774-1.77-5 4.985a1.243 1.243 0 0 0 0 1.757l5 4.985 1.762-1.757-2.863-2.854H28.75c3.5 0 3.75 2.094 3.75 2.492v8.723H35v-8.723c0-1.72-1.25-4.984-6.25-4.984H18.012l2.875-2.854zM45 28.908V31.4a2.496 2.496 0 0 0 2.5 2.492h6.25V31.4H47.5v-2.492H45zM56.25 31.4h2.5v2.492h-2.5zM21.25 31.4h2.5v2.492h-2.5zM35 31.4v-2.492h-2.5V31.4h-6.25v2.492h6.25c1.38 0 2.5-1.116 2.5-2.492z"/><path d="M21.25 42.615h37.5v-2.492h-17.5V28.908h-2.5v11.215h-17.5z"/><path d="M76.25 2.738h-20v2.493h20c.69 0 1.25.558 1.25 1.246v39.877h-3.75V10.215c0-.688-.56-1.246-1.25-1.246H70v2.493h1.25v34.892H8.75V11.462h2.5V8.969H7.5c-.69 0-1.25.558-1.25 1.246v36.139H2.5V6.477c0-.688.56-1.246 1.25-1.246h20V2.738h-20A3.744 3.744 0 0 0 0 6.477v54.83c0 .689.56 1.247 1.25 1.247h28.475l-2 9.97H25c-.69 0-1.25.557-1.25 1.245v3.739h-2.5V80h37.5v-2.492h-2.5v-3.739c0-.688-.56-1.246-1.25-1.246h-2.725l-2-9.97H78.75c.69 0 1.25-.557 1.25-1.245V6.477a3.744 3.744 0 0 0-3.75-3.739zm-25 72.277h2.5v2.493h-27.5v-2.493h25zm-20.975-2.492l2-9.97h15.45l2 9.97h-19.45zM77.5 60.062h-75V48.846h75v11.216z"/><path d="M40 57.57a3.744 3.744 0 0 0 3.75-3.74A3.744 3.744 0 0 0 40 50.093a3.744 3.744 0 0 0-3.75 3.739A3.744 3.744 0 0 0 40 57.569zm0-4.985c.69 0 1.25.558 1.25 1.246s-.56 1.246-1.25 1.246-1.25-.558-1.25-1.246.56-1.246 1.25-1.246z"/></g></svg>