<svg width="80" height="80" viewBox="0 0 80 80" xmlns="http://www.w3.org/2000/svg"><title>noun_1255059_cc</title><g fill="#0976C9" fill-rule="nonzero"><path d="M77.5 27.5a1.25 1.25 0 0 0 .888-.363l1.25-1.25A1.25 1.25 0 0 0 80 25V5a5 5 0 0 0-5-5H5a5 5 0 0 0-5 5v20a1.25 1.25 0 0 0 .362.887l1.25 1.25c.236.234.556.365.888.363h1.25v5.175A5 5 0 0 0 0 37.5v20a1.25 1.25 0 0 0 .362.888l1.25 1.25c.236.233.556.364.888.362h33.75v7.5h-7.5a2.5 2.5 0 0 0-2.5 2.5H7.5c-.69 0-1.25.56-1.25 1.25v5c0 .69.56 1.25 1.25 1.25h18.75a2.5 2.5 0 0 0 2.5 2.5h22.5a2.5 2.5 0 0 0 2.5-2.5H72.5c.69 0 1.25-.56 1.25-1.25v-5c0-.69-.56-1.25-1.25-1.25H53.75a2.5 2.5 0 0 0-2.5-2.5h-7.5V60H77.5a1.25 1.25 0 0 0 .888-.362l1.25-1.25A1.25 1.25 0 0 0 80 57.5v-20a5 5 0 0 0-3.75-4.825V27.5h1.25zM26.25 75H8.75v-2.5h17.5V75zm27.5-2.5h17.5V75h-17.5v-2.5zm-2.5-2.5v7.5h-22.5V75h15v-2.5h-15V70h22.5zm-12.5-2.5V60h2.5v7.5h-2.5zm38.75-30v19.487l-.513.513H3.013l-.513-.513V37.5A2.5 2.5 0 0 1 5 35h70a2.5 2.5 0 0 1 2.5 2.5zm-71.25-5v-5h67.5v5H6.25zM3.013 25l-.513-.512V5A2.5 2.5 0 0 1 5 2.5h70A2.5 2.5 0 0 1 77.5 5v19.488l-.513.512H3.013z"/><path d="M6.25 17.5h52.5c.69 0 1.25-.56 1.25-1.25v-10C60 5.56 59.44 5 58.75 5H6.25C5.56 5 5 5.56 5 6.25v10c0 .69.56 1.25 1.25 1.25zm1.25-10h50V15h-50V7.5zM68.75 5a6.25 6.25 0 1 0 0 12.5 6.25 6.25 0 0 0 0-12.5zm0 10a3.75 3.75 0 0 1-3.525-2.5h7.038A3.75 3.75 0 0 1 68.75 15zm-3.525-5a3.75 3.75 0 0 1 7.038 0h-7.038z"/><path d="M10 10h20v2.5H10zM32.5 10H35v2.5h-2.5zM37.5 10H40v2.5h-2.5zM42.5 10H45v2.5h-2.5zM47.5 10H55v2.5h-7.5zM5 20h70v2.5H5zM36.25 38.75h-30C5.56 38.75 5 39.31 5 40v12.5c0 .69.56 1.25 1.25 1.25h30c.69 0 1.25-.56 1.25-1.25V40c0-.69-.56-1.25-1.25-1.25zM35 51.25H7.5v-10H35v10z"/><path d="M10 43.75h2.5v5H10zM15 43.75h2.5v5H15zM20 43.75h2.5v5H20zM25 43.75h2.5v5H25zM30 43.75h2.5v5H30zM73.75 38.75h-30c-.69 0-1.25.56-1.25 1.25v12.5c0 .69.56 1.25 1.25 1.25h30c.69 0 1.25-.56 1.25-1.25V40c0-.69-.56-1.25-1.25-1.25zm-1.25 12.5H45v-10h27.5v10z"/><path d="M47.5 43.75H50v5h-2.5zM52.5 43.75H55v5h-2.5zM57.5 43.75H60v5h-2.5zM62.5 43.75H65v5h-2.5zM67.5 43.75H70v5h-2.5zM46.25 72.5h2.5V75h-2.5z"/></g></svg>